<?xml version="1.0" encoding="utf-8"?>
<!-- Generator: Adobe Illustrator 19.2.1, SVG Export Plug-In . SVG Version: 6.00 Build 0)  -->
<svg version="1.1" id="Layer_1" xmlns="http://www.w3.org/2000/svg" xmlns:xlink="http://www.w3.org/1999/xlink" x="0px" y="0px"
	 width="542px" height="380px" viewBox="0 0 542 380" style="enable-background:new 0 0 542 380;" xml:space="preserve">
<style type="text/css">
	.st0{clip-path:url(#SVGID_2_);}
	.st1{clip-path:url(#SVGID_4_);}
	.st2{clip-path:url(#SVGID_4_);fill:none;stroke:#DDDDDD;stroke-width:0.5715;}
	.st3{clip-path:url(#SVGID_4_);fill:#CCCCCC;}
	.st4{fill:#CCCCCC;}
	.st5{font-family:'OpenSans';}
	.st6{font-size:4.5738px;}
	.st7{clip-path:url(#SVGID_4_);fill:none;stroke:#AAAAAA;stroke-width:1.1431;}
	.st8{clip-path:url(#SVGID_4_);fill:#4682B4;}
	.st9{clip-path:url(#SVGID_4_);fill:none;stroke:#336699;stroke-width:1.1431;}
	.st10{clip-path:url(#SVGID_4_);fill:#2CA02C;}
	.st11{clip-path:url(#SVGID_4_);fill:#FF7F0E;}
	.st12{clip-path:url(#SVGID_4_);fill:none;stroke:#FFFFFF;stroke-width:1.1431;}
	.st13{font-size:5.7173px;}
	.st14{clip-path:url(#SVGID_4_);fill:#E377C2;}
	.st15{clip-path:url(#SVGID_4_);fill:#D62728;}
	.st16{clip-path:url(#SVGID_4_);fill:#FFBB78;}
	.st17{clip-path:url(#SVGID_4_);fill:#1F77B4;}
	.st18{clip-path:url(#SVGID_4_);fill:#9467BD;}
	.st19{clip-path:url(#SVGID_4_);fill:#8C564B;}
	.st20{clip-path:url(#SVGID_4_);fill:#C5B0D5;}
	.st21{clip-path:url(#SVGID_4_);fill:#C49C94;}
	.st22{clip-path:url(#SVGID_4_);fill:#AEC7E8;}
	.st23{clip-path:url(#SVGID_4_);fill:#98DF8A;}
	.st24{clip-path:url(#SVGID_4_);fill:#FF9896;}
</style>
<g>
	<defs>
		<rect id="SVGID_1_" x="-3.4" y="2.3" width="548.4" height="366.8"/>
	</defs>
	<clipPath id="SVGID_2_">
		<use xlink:href="#SVGID_1_"  style="overflow:visible;"/>
	</clipPath>
	<g class="st0">
		<defs>
			<rect id="SVGID_3_" x="-40" y="-120" width="612" height="792"/>
		</defs>
		<clipPath id="SVGID_4_">
			<use xlink:href="#SVGID_3_"  style="overflow:visible;"/>
		</clipPath>
		<line class="st1" x1="25.1" y1="19.4" x2="25.1" y2="362.4"/>
		<line class="st2" x1="25.1" y1="19.4" x2="25.1" y2="362.4"/>
		<line class="st1" x1="80.6" y1="19.4" x2="80.6" y2="362.4"/>
		<line class="st2" x1="80.6" y1="19.4" x2="80.6" y2="362.4"/>
		<line class="st1" x1="136.2" y1="19.4" x2="136.2" y2="362.4"/>
		<line class="st2" x1="136.2" y1="19.4" x2="136.2" y2="362.4"/>
		<line class="st1" x1="191.7" y1="19.4" x2="191.7" y2="362.4"/>
		<line class="st2" x1="191.7" y1="19.4" x2="191.7" y2="362.4"/>
		<line class="st1" x1="247.2" y1="19.4" x2="247.2" y2="362.4"/>
		<line class="st2" x1="247.2" y1="19.4" x2="247.2" y2="362.4"/>
		<line class="st1" x1="302.7" y1="19.4" x2="302.7" y2="362.4"/>
		<line class="st2" x1="302.7" y1="19.4" x2="302.7" y2="362.4"/>
		<line class="st1" x1="358.2" y1="19.4" x2="358.2" y2="362.4"/>
		<line class="st2" x1="358.2" y1="19.4" x2="358.2" y2="362.4"/>
		<line class="st1" x1="413.7" y1="19.4" x2="413.7" y2="362.4"/>
		<line class="st2" x1="413.7" y1="19.4" x2="413.7" y2="362.4"/>
		<line class="st1" x1="469.2" y1="19.4" x2="469.2" y2="362.4"/>
		<line class="st2" x1="469.2" y1="19.4" x2="469.2" y2="362.4"/>
		<rect x="23.8" y="18" class="st3" width="2.6" height="0.2"/>
		<g class="st1">
			<text transform="matrix(0.9994 0 0 1 23.8306 17.6982)" class="st4 st5 st6">0</text>
		</g>
		<rect x="77.4" y="18" class="st3" width="6.4" height="0.2"/>
		<g class="st1">
			<text transform="matrix(0.9994 0 0 1 77.4253 17.6982)" class="st4 st5 st6">0</text>
		</g>
		<g class="st1">
			<text transform="matrix(0.9994 0 0 1 80.0386 17.6982)" class="st4 st5 st6">.</text>
		</g>
		<g class="st1">
			<text transform="matrix(0.9994 0 0 1 81.2549 17.6982)" class="st4 st5 st6">1</text>
		</g>
		<rect x="132.9" y="18" class="st3" width="6.4" height="0.2"/>
		<g class="st1">
			<text transform="matrix(0.9994 0 0 1 132.9346 17.6982)" class="st4 st5 st6">0</text>
		</g>
		<g class="st1">
			<text transform="matrix(0.9994 0 0 1 135.5483 17.6982)" class="st4 st5 st6">.</text>
		</g>
		<g class="st1">
			<text transform="matrix(0.9994 0 0 1 136.7646 17.6982)" class="st4 st5 st6">2</text>
		</g>
		<rect x="188.4" y="18" class="st3" width="6.4" height="0.2"/>
		<g class="st1">
			<text transform="matrix(0.9994 0 0 1 188.4443 17.6982)" class="st4 st5 st6">0</text>
		</g>
		<g class="st1">
			<text transform="matrix(0.9994 0 0 1 191.0576 17.6982)" class="st4 st5 st6">.</text>
		</g>
		<g class="st1">
			<text transform="matrix(0.9994 0 0 1 192.2739 17.6982)" class="st4 st5 st6">3</text>
		</g>
		<rect x="244" y="18" class="st3" width="6.4" height="0.2"/>
		<g class="st1">
			<text transform="matrix(0.9994 0 0 1 243.9536 17.6982)" class="st4 st5 st6">0</text>
		</g>
		<g class="st1">
			<text transform="matrix(0.9994 0 0 1 246.5674 17.6982)" class="st4 st5 st6">.</text>
		</g>
		<g class="st1">
			<text transform="matrix(0.9994 0 0 1 247.7832 17.6982)" class="st4 st5 st6">4</text>
		</g>
		<rect x="299.5" y="18" class="st3" width="6.4" height="0.2"/>
		<g class="st1">
			<text transform="matrix(0.9994 0 0 1 299.4629 17.6982)" class="st4 st5 st6">0</text>
		</g>
		<g class="st1">
			<text transform="matrix(0.9994 0 0 1 302.0762 17.6982)" class="st4 st5 st6">.</text>
		</g>
		<g class="st1">
			<text transform="matrix(0.9994 0 0 1 303.293 17.6982)" class="st4 st5 st6">5</text>
		</g>
		<rect x="355" y="18" class="st3" width="6.4" height="0.2"/>
		<g class="st1">
			<text transform="matrix(0.9994 0 0 1 354.9727 17.6982)" class="st4 st5 st6">0</text>
		</g>
		<g class="st1">
			<text transform="matrix(0.9994 0 0 1 357.5859 17.6982)" class="st4 st5 st6">.</text>
		</g>
		<g class="st1">
			<text transform="matrix(0.9994 0 0 1 358.8027 17.6982)" class="st4 st5 st6">6</text>
		</g>
		<rect x="410.5" y="18" class="st3" width="6.4" height="0.2"/>
		<g class="st1">
			<text transform="matrix(0.9994 0 0 1 410.4814 17.6982)" class="st4 st5 st6">0</text>
		</g>
		<g class="st1">
			<text transform="matrix(0.9994 0 0 1 413.0957 17.6982)" class="st4 st5 st6">.</text>
		</g>
		<g class="st1">
			<text transform="matrix(0.9994 0 0 1 414.3115 17.6982)" class="st4 st5 st6">7</text>
		</g>
		<rect x="466" y="18" class="st3" width="6.4" height="0.2"/>
		<g class="st1">
			<text transform="matrix(0.9994 0 0 1 465.9912 17.6982)" class="st4 st5 st6">0</text>
		</g>
		<g class="st1">
			<text transform="matrix(0.9994 0 0 1 468.6055 17.6982)" class="st4 st5 st6">.</text>
		</g>
		<g class="st1">
			<text transform="matrix(0.9994 0 0 1 469.8213 17.6982)" class="st4 st5 st6">8</text>
		</g>
		<polyline class="st7" points="25.1,136.9 25.1,38.5 46.3,38.5 		"/>
		<polyline class="st7" points="25.1,136.9 25.1,235.4 29.6,235.4 		"/>
		<polyline class="st7" points="29.6,235.4 29.6,146.5 48.6,146.5 		"/>
		<polyline class="st7" points="29.6,235.4 29.6,324.3 57.1,324.3 		"/>
		<polyline class="st7" points="57.1,324.3 57.1,305.3 72.5,305.3 		"/>
		<polyline class="st7" points="57.1,324.3 57.1,343.4 57.4,343.4 		"/>
		<polyline class="st7" points="57.4,343.4 57.4,337 76.2,337 		"/>
		<polyline class="st7" points="57.4,343.4 57.4,349.7 181.4,349.7 		"/>
		<polyline class="st7" points="72.5,305.3 72.5,298.9 254.8,298.9 		"/>
		<polyline class="st7" points="72.5,305.3 72.5,311.6 240.5,311.6 		"/>
		<polyline class="st7" points="48.6,146.5 48.6,95.6 107.1,95.6 		"/>
		<polyline class="st7" points="48.6,146.5 48.6,197.3 56.6,197.3 		"/>
		<polyline class="st7" points="56.6,197.3 56.6,171.9 482.2,171.9 		"/>
		<polyline class="st7" points="56.6,197.3 56.6,222.7 72,222.7 		"/>
		<polyline class="st7" points="72,222.7 72,197.3 188.7,197.3 		"/>
		<polyline class="st7" points="72,222.7 72,248.1 83.4,248.1 		"/>
		<polyline class="st7" points="83.4,248.1 83.4,229 200.8,229 		"/>
		<polyline class="st7" points="83.4,248.1 83.4,267.2 176.6,267.2 		"/>
		<polyline class="st7" points="176.6,267.2 176.6,260.8 291.6,260.8 		"/>
		<polyline class="st7" points="176.6,267.2 176.6,273.5 195.1,273.5 		"/>
		<polyline class="st7" points="200.8,229 200.8,222.7 250.8,222.7 		"/>
		<polyline class="st7" points="200.8,229 200.8,235.4 235.7,235.4 		"/>
		<polyline class="st7" points="107.1,95.6 107.1,70.2 310.7,70.2 		"/>
		<polyline class="st7" points="107.1,95.6 107.1,121.1 127.7,121.1 		"/>
		<polyline class="st7" points="127.7,121.1 127.7,102 180.2,102 		"/>
		<polyline class="st7" points="127.7,121.1 127.7,140.1 135.9,140.1 		"/>
		<polyline class="st7" points="135.9,140.1 135.9,133.8 239.8,133.8 		"/>
		<polyline class="st7" points="135.9,140.1 135.9,146.5 164.2,146.5 		"/>
		<polyline class="st7" points="180.2,102 180.2,95.6 200.9,95.6 		"/>
		<polyline class="st7" points="180.2,102 180.2,108.3 184.8,108.3 		"/>
		<polyline class="st7" points="46.3,38.5 46.3,32.1 57.3,32.1 		"/>
		<polyline class="st7" points="46.3,38.5 46.3,44.8 128.2,44.8 		"/>
		<path class="st8" d="M27.7,136.9c0,0.7-0.3,1.3-0.8,1.8c-0.5,0.5-1.1,0.8-1.8,0.8s-1.3-0.3-1.8-0.8c-0.5-0.5-0.8-1.1-0.8-1.8
			c0-0.7,0.3-1.3,0.8-1.8c0.5-0.5,1.1-0.8,1.8-0.8s1.3,0.3,1.8,0.8C27.5,135.6,27.7,136.2,27.7,136.9z"/>
		<path class="st9" d="M27.7,136.9c0,0.7-0.3,1.3-0.8,1.8c-0.5,0.5-1.1,0.8-1.8,0.8s-1.3-0.3-1.8-0.8c-0.5-0.5-0.8-1.1-0.8-1.8
			s0.3-1.3,0.8-1.8c0.5-0.5,1.1-0.8,1.8-0.8s1.3,0.3,1.8,0.8C27.5,135.6,27.7,136.2,27.7,136.9z"/>
		<g class="st1">
			<text transform="matrix(0.9994 0 0 1 9.2466 231.9688)" class="st4 st5 st6">0</text>
		</g>
		<g class="st1">
			<text transform="matrix(0.9994 0 0 1 11.8604 231.9688)" class="st4 st5 st6">.</text>
		</g>
		<g class="st1">
			<text transform="matrix(0.9994 0 0 1 13.0762 231.9688)" class="st4 st5 st6">0</text>
		</g>
		<g class="st1">
			<text transform="matrix(0.9994 0 0 1 15.6904 231.9688)" class="st4 st5 st6">0</text>
		</g>
		<g class="st1">
			<text transform="matrix(0.9994 0 0 1 18.3037 231.9688)" class="st4 st5 st6">7</text>
		</g>
		<g class="st1">
			<text transform="matrix(0.9994 0 0 1 20.917 231.9688)" class="st4 st5 st6">9</text>
		</g>
		<g class="st1">
			<text transform="matrix(0.9994 0 0 1 23.5308 231.9688)" class="st4 st5 st6">9</text>
		</g>
		<g class="st1">
			<text transform="matrix(0.9994 0 0 1 36.813 320.9043)" class="st4 st5 st6">0</text>
		</g>
		<g class="st1">
			<text transform="matrix(0.9994 0 0 1 39.4268 320.9043)" class="st4 st5 st6">.</text>
		</g>
		<g class="st1">
			<text transform="matrix(0.9994 0 0 1 40.6426 320.9043)" class="st4 st5 st6">0</text>
		</g>
		<g class="st1">
			<text transform="matrix(0.9994 0 0 1 43.2568 320.9043)" class="st4 st5 st6">4</text>
		</g>
		<g class="st1">
			<text transform="matrix(0.9994 0 0 1 45.8701 320.9043)" class="st4 st5 st6">9</text>
		</g>
		<g class="st1">
			<text transform="matrix(0.9994 0 0 1 48.4834 320.9043)" class="st4 st5 st6">6</text>
		</g>
		<g class="st1">
			<text transform="matrix(0.9994 0 0 1 51.0972 320.9043)" class="st4 st5 st6">6</text>
		</g>
		<g class="st1">
			<text transform="matrix(0.9994 0 0 1 37.1128 339.9619)" class="st4 st5 st6">0</text>
		</g>
		<g class="st1">
			<text transform="matrix(0.9994 0 0 1 39.7266 339.9619)" class="st4 st5 st6">.</text>
		</g>
		<g class="st1">
			<text transform="matrix(0.9994 0 0 1 40.9424 339.9619)" class="st4 st5 st6">0</text>
		</g>
		<g class="st1">
			<text transform="matrix(0.9994 0 0 1 43.5566 339.9619)" class="st4 st5 st6">0</text>
		</g>
		<g class="st1">
			<text transform="matrix(0.9994 0 0 1 46.1699 339.9619)" class="st4 st5 st6">0</text>
		</g>
		<g class="st1">
			<text transform="matrix(0.9994 0 0 1 48.7832 339.9619)" class="st4 st5 st6">5</text>
		</g>
		<g class="st1">
			<text transform="matrix(0.9994 0 0 1 51.397 339.9619)" class="st4 st5 st6">4</text>
		</g>
		<rect x="76.2" y="331.6" class="st10" width="49.7" height="10.9"/>
		<path class="st11" d="M78.8,337c0,0.7-0.3,1.3-0.8,1.8c-0.5,0.5-1.1,0.8-1.8,0.8s-1.3-0.3-1.8-0.8c-0.5-0.5-0.8-1.1-0.8-1.8
			c0-0.7,0.3-1.3,0.8-1.8c0.5-0.5,1.1-0.8,1.8-0.8s1.3,0.3,1.8,0.8C78.5,335.7,78.8,336.3,78.8,337z"/>
		<path class="st12" d="M78.8,337c0,0.7-0.3,1.3-0.8,1.8c-0.5,0.5-1.1,0.8-1.8,0.8s-1.3-0.3-1.8-0.8c-0.5-0.5-0.8-1.1-0.8-1.8
			s0.3-1.3,0.8-1.8c0.5-0.5,1.1-0.8,1.8-0.8s1.3,0.3,1.8,0.8C78.5,335.7,78.8,336.3,78.8,337z"/>
		<g class="st1">
			<text transform="matrix(0.9994 0 0 1 80.7988 338.7549)" class="st5 st13">6</text>
		</g>
		<g class="st1">
			<text transform="matrix(0.9994 0 0 1 84.0664 338.7549)" class="st5 st13">2</text>
		</g>
		<g class="st1">
			<text transform="matrix(0.9994 0 0 1 87.333 338.7549)" class="st5 st13">9</text>
		</g>
		<g class="st1">
			<text transform="matrix(0.9994 0 0 1 90.6001 338.7549)" class="st5 st13">3</text>
		</g>
		<g class="st1">
			<text transform="matrix(0.9994 0 0 1 93.8672 338.7549)" class="st5 st13">7</text>
		</g>
		<g class="st1">
			<text transform="matrix(0.9994 0 0 1 97.1338 338.7549)" class="st5 st13"> </text>
		</g>
		<g class="st1">
			<text transform="matrix(0.9994 0 0 1 98.6182 338.7549)" class="st5 st13">(</text>
		</g>
		<g class="st1">
			<text transform="matrix(0.9994 0 0 1 100.3086 338.7549)" class="st5 st13">0</text>
		</g>
		<g class="st1">
			<text transform="matrix(0.9994 0 0 1 103.5757 338.7549)" class="st5 st13">.</text>
		</g>
		<g class="st1">
			<text transform="matrix(0.9994 0 0 1 105.0962 338.7549)" class="st5 st13">0</text>
		</g>
		<g class="st1">
			<text transform="matrix(0.9994 0 0 1 108.3633 338.7549)" class="st5 st13">3</text>
		</g>
		<g class="st1">
			<text transform="matrix(0.9994 0 0 1 111.6299 338.7549)" class="st5 st13">3</text>
		</g>
		<g class="st1">
			<text transform="matrix(0.9994 0 0 1 114.897 338.7549)" class="st5 st13">8</text>
		</g>
		<g class="st1">
			<text transform="matrix(0.9994 0 0 1 118.1641 338.7549)" class="st5 st13">5</text>
		</g>
		<g class="st1">
			<text transform="matrix(0.9994 0 0 1 121.4307 338.7549)" class="st5 st13">)</text>
		</g>
		<rect x="181.4" y="344.3" class="st14" width="98.6" height="10.9"/>
		<path class="st10" d="M184,349.7c0,0.7-0.3,1.3-0.8,1.8c-0.5,0.5-1.1,0.8-1.8,0.8s-1.3-0.3-1.8-0.8c-0.5-0.5-0.8-1.1-0.8-1.8
			c0-0.7,0.3-1.3,0.8-1.8c0.5-0.5,1.1-0.8,1.8-0.8s1.3,0.3,1.8,0.8C183.7,348.4,184,349,184,349.7z"/>
		<path class="st12" d="M184,349.7c0,0.7-0.3,1.3-0.8,1.8c-0.5,0.5-1.1,0.8-1.8,0.8s-1.3-0.3-1.8-0.8c-0.5-0.5-0.8-1.1-0.8-1.8
			s0.3-1.3,0.8-1.8c0.5-0.5,1.1-0.8,1.8-0.8s1.3,0.3,1.8,0.8C183.7,348.4,184,349,184,349.7z"/>
		<g class="st1">
			<text transform="matrix(0.9994 0 0 1 185.9785 351.46)" class="st5 st13">N</text>
		</g>
		<g class="st1">
			<text transform="matrix(0.9994 0 0 1 190.2861 351.46)" class="st5 st13">e</text>
		</g>
		<g class="st1">
			<text transform="matrix(0.9994 0 0 1 193.4922 351.46)" class="st5 st13">w</text>
		</g>
		<g class="st1">
			<text transform="matrix(0.9994 0 0 1 197.9365 351.46)" class="st5 st13">.</text>
		</g>
		<g class="st1">
			<text transform="matrix(0.9994 0 0 1 199.457 351.46)" class="st5 st13">R</text>
		</g>
		<g class="st1">
			<text transform="matrix(0.9994 0 0 1 202.9888 351.46)" class="st5 st13">e</text>
		</g>
		<g class="st1">
			<text transform="matrix(0.9994 0 0 1 206.1938 351.46)" class="st5 st13">f</text>
		</g>
		<g class="st1">
			<text transform="matrix(0.9994 0 0 1 208.1304 351.46)" class="st5 st13">e</text>
		</g>
		<g class="st1">
			<text transform="matrix(0.9994 0 0 1 211.3359 351.46)" class="st5 st13">r</text>
		</g>
		<g class="st1">
			<text transform="matrix(0.9994 0 0 1 213.6685 351.46)" class="st5 st13">e</text>
		</g>
		<g class="st1">
			<text transform="matrix(0.9994 0 0 1 216.874 351.46)" class="st5 st13">n</text>
		</g>
		<g class="st1">
			<text transform="matrix(0.9994 0 0 1 220.3804 351.46)" class="st5 st13">c</text>
		</g>
		<g class="st1">
			<text transform="matrix(0.9994 0 0 1 223.1006 351.46)" class="st5 st13">e</text>
		</g>
		<g class="st1">
			<text transform="matrix(0.9994 0 0 1 226.3057 351.46)" class="st5 st13">O</text>
		</g>
		<g class="st1">
			<text transform="matrix(0.9994 0 0 1 230.7563 351.46)" class="st5 st13">T</text>
		</g>
		<g class="st1">
			<text transform="matrix(0.9994 0 0 1 233.917 351.46)" class="st5 st13">U</text>
		</g>
		<g class="st1">
			<text transform="matrix(0.9994 0 0 1 238.0762 351.46)" class="st5 st13">2</text>
		</g>
		<g class="st1">
			<text transform="matrix(0.9994 0 0 1 241.3438 351.46)" class="st5 st13">0</text>
		</g>
		<g class="st1">
			<text transform="matrix(0.9994 0 0 1 244.6108 351.46)" class="st5 st13">0</text>
		</g>
		<g class="st1">
			<text transform="matrix(0.9994 0 0 1 247.877 351.46)" class="st5 st13">8</text>
		</g>
		<g class="st1">
			<text transform="matrix(0.9994 0 0 1 251.1445 351.46)" class="st5 st13"> </text>
		</g>
		<g class="st1">
			<text transform="matrix(0.9994 0 0 1 252.6284 351.46)" class="st5 st13">(</text>
		</g>
		<g class="st1">
			<text transform="matrix(0.9994 0 0 1 254.3193 351.46)" class="st5 st13">0</text>
		</g>
		<g class="st1">
			<text transform="matrix(0.9994 0 0 1 257.5864 351.46)" class="st5 st13">.</text>
		</g>
		<g class="st1">
			<text transform="matrix(0.9994 0 0 1 259.1064 351.46)" class="st5 st13">2</text>
		</g>
		<g class="st1">
			<text transform="matrix(0.9994 0 0 1 262.374 351.46)" class="st5 st13">2</text>
		</g>
		<g class="st1">
			<text transform="matrix(0.9994 0 0 1 265.6406 351.46)" class="st5 st13">3</text>
		</g>
		<g class="st1">
			<text transform="matrix(0.9994 0 0 1 268.9072 351.46)" class="st5 st13">3</text>
		</g>
		<g class="st1">
			<text transform="matrix(0.9994 0 0 1 272.1748 351.46)" class="st5 st13">3</text>
		</g>
		<g class="st1">
			<text transform="matrix(0.9994 0 0 1 275.4414 351.46)" class="st5 st13">)</text>
		</g>
		<g class="st1">
			<text transform="matrix(0.9994 0 0 1 52.2056 301.8467)" class="st4 st5 st6">0</text>
		</g>
		<g class="st1">
			<text transform="matrix(0.9994 0 0 1 54.8193 301.8467)" class="st4 st5 st6">.</text>
		</g>
		<g class="st1">
			<text transform="matrix(0.9994 0 0 1 56.0352 301.8467)" class="st4 st5 st6">0</text>
		</g>
		<g class="st1">
			<text transform="matrix(0.9994 0 0 1 58.6494 301.8467)" class="st4 st5 st6">2</text>
		</g>
		<g class="st1">
			<text transform="matrix(0.9994 0 0 1 61.2627 301.8467)" class="st4 st5 st6">7</text>
		</g>
		<g class="st1">
			<text transform="matrix(0.9994 0 0 1 63.876 301.8467)" class="st4 st5 st6">7</text>
		</g>
		<g class="st1">
			<text transform="matrix(0.9994 0 0 1 66.4897 301.8467)" class="st4 st5 st6">3</text>
		</g>
		<rect x="254.8" y="293.5" class="st15" width="49.7" height="10.9"/>
		<path class="st11" d="M257.4,298.9c0,0.7-0.3,1.3-0.8,1.8c-0.5,0.5-1.1,0.8-1.8,0.8s-1.3-0.3-1.8-0.8c-0.5-0.5-0.8-1.1-0.8-1.8
			c0-0.7,0.3-1.3,0.8-1.8c0.5-0.5,1.1-0.8,1.8-0.8s1.3,0.3,1.8,0.8C257.1,297.6,257.4,298.2,257.4,298.9z"/>
		<path class="st12" d="M257.4,298.9c0,0.7-0.3,1.3-0.8,1.8c-0.5,0.5-1.1,0.8-1.8,0.8s-1.3-0.3-1.8-0.8c-0.5-0.5-0.8-1.1-0.8-1.8
			s0.3-1.3,0.8-1.8c0.5-0.5,1.1-0.8,1.8-0.8s1.3,0.3,1.8,0.8C257.1,297.6,257.4,298.2,257.4,298.9z"/>
		<g class="st1">
			<text transform="matrix(0.9994 0 0 1 259.3896 300.6396)" class="st5 st13">3</text>
		</g>
		<g class="st1">
			<text transform="matrix(0.9994 0 0 1 262.6572 300.6396)" class="st5 st13">0</text>
		</g>
		<g class="st1">
			<text transform="matrix(0.9994 0 0 1 265.9238 300.6396)" class="st5 st13">5</text>
		</g>
		<g class="st1">
			<text transform="matrix(0.9994 0 0 1 269.1914 300.6396)" class="st5 st13">1</text>
		</g>
		<g class="st1">
			<text transform="matrix(0.9994 0 0 1 272.458 300.6396)" class="st5 st13">4</text>
		</g>
		<g class="st1">
			<text transform="matrix(0.9994 0 0 1 275.7246 300.6396)" class="st5 st13"> </text>
		</g>
		<g class="st1">
			<text transform="matrix(0.9994 0 0 1 277.209 300.6396)" class="st5 st13">(</text>
		</g>
		<g class="st1">
			<text transform="matrix(0.9994 0 0 1 278.8994 300.6396)" class="st5 st13">0</text>
		</g>
		<g class="st1">
			<text transform="matrix(0.9994 0 0 1 282.166 300.6396)" class="st5 st13">.</text>
		</g>
		<g class="st1">
			<text transform="matrix(0.9994 0 0 1 283.6875 300.6396)" class="st5 st13">3</text>
		</g>
		<g class="st1">
			<text transform="matrix(0.9994 0 0 1 286.9541 300.6396)" class="st5 st13">2</text>
		</g>
		<g class="st1">
			<text transform="matrix(0.9994 0 0 1 290.2207 300.6396)" class="st5 st13">8</text>
		</g>
		<g class="st1">
			<text transform="matrix(0.9994 0 0 1 293.4883 300.6396)" class="st5 st13">3</text>
		</g>
		<g class="st1">
			<text transform="matrix(0.9994 0 0 1 296.7549 300.6396)" class="st5 st13">9</text>
		</g>
		<g class="st1">
			<text transform="matrix(0.9994 0 0 1 300.0215 300.6396)" class="st5 st13">)</text>
		</g>
		<rect x="240.5" y="306.2" class="st11" width="46.5" height="10.9"/>
		<path class="st11" d="M243.1,311.6c0,0.7-0.3,1.3-0.8,1.8c-0.5,0.5-1.1,0.8-1.8,0.8c-0.7,0-1.3-0.3-1.8-0.8
			c-0.5-0.5-0.8-1.1-0.8-1.8c0-0.7,0.3-1.3,0.8-1.8c0.5-0.5,1.1-0.8,1.8-0.8c0.7,0,1.3,0.3,1.8,0.8
			C242.9,310.3,243.1,310.9,243.1,311.6z"/>
		<path class="st12" d="M243.1,311.6c0,0.7-0.3,1.3-0.8,1.8c-0.5,0.5-1.1,0.8-1.8,0.8s-1.3-0.3-1.8-0.8c-0.5-0.5-0.8-1.1-0.8-1.8
			s0.3-1.3,0.8-1.8c0.5-0.5,1.1-0.8,1.8-0.8s1.3,0.3,1.8,0.8C242.9,310.3,243.1,310.9,243.1,311.6z"/>
		<g class="st1">
			<text transform="matrix(0.9994 0 0 1 245.1182 313.3447)" class="st5 st13">6</text>
		</g>
		<g class="st1">
			<text transform="matrix(0.9994 0 0 1 248.3857 313.3447)" class="st5 st13">1</text>
		</g>
		<g class="st1">
			<text transform="matrix(0.9994 0 0 1 251.6523 313.3447)" class="st5 st13">3</text>
		</g>
		<g class="st1">
			<text transform="matrix(0.9994 0 0 1 254.9194 313.3447)" class="st5 st13">3</text>
		</g>
		<g class="st1">
			<text transform="matrix(0.9994 0 0 1 258.1865 313.3447)" class="st5 st13"> </text>
		</g>
		<g class="st1">
			<text transform="matrix(0.9994 0 0 1 259.6704 313.3447)" class="st5 st13">(</text>
		</g>
		<g class="st1">
			<text transform="matrix(0.9994 0 0 1 261.3613 313.3447)" class="st5 st13">0</text>
		</g>
		<g class="st1">
			<text transform="matrix(0.9994 0 0 1 264.6279 313.3447)" class="st5 st13">.</text>
		</g>
		<g class="st1">
			<text transform="matrix(0.9994 0 0 1 266.1484 313.3447)" class="st5 st13">3</text>
		</g>
		<g class="st1">
			<text transform="matrix(0.9994 0 0 1 269.416 313.3447)" class="st5 st13">0</text>
		</g>
		<g class="st1">
			<text transform="matrix(0.9994 0 0 1 272.6826 313.3447)" class="st5 st13">2</text>
		</g>
		<g class="st1">
			<text transform="matrix(0.9994 0 0 1 275.9492 313.3447)" class="st5 st13">6</text>
		</g>
		<g class="st1">
			<text transform="matrix(0.9994 0 0 1 279.2168 313.3447)" class="st5 st13">8</text>
		</g>
		<g class="st1">
			<text transform="matrix(0.9994 0 0 1 282.4834 313.3447)" class="st5 st13">)</text>
		</g>
		<g class="st1">
			<text transform="matrix(0.9994 0 0 1 28.2642 143.0332)" class="st4 st5 st6">0</text>
		</g>
		<g class="st1">
			<text transform="matrix(0.9994 0 0 1 30.8779 143.0332)" class="st4 st5 st6">.</text>
		</g>
		<g class="st1">
			<text transform="matrix(0.9994 0 0 1 32.0938 143.0332)" class="st4 st5 st6">0</text>
		</g>
		<g class="st1">
			<text transform="matrix(0.9994 0 0 1 34.708 143.0332)" class="st4 st5 st6">3</text>
		</g>
		<g class="st1">
			<text transform="matrix(0.9994 0 0 1 37.3213 143.0332)" class="st4 st5 st6">4</text>
		</g>
		<g class="st1">
			<text transform="matrix(0.9994 0 0 1 39.9346 143.0332)" class="st4 st5 st6">2</text>
		</g>
		<g class="st1">
			<text transform="matrix(0.9994 0 0 1 42.5483 143.0332)" class="st4 st5 st6">6</text>
		</g>
		<g class="st1">
			<text transform="matrix(0.9994 0 0 1 36.2246 193.8535)" class="st4 st5 st6">0</text>
		</g>
		<g class="st1">
			<text transform="matrix(0.9994 0 0 1 38.8379 193.8535)" class="st4 st5 st6">.</text>
		</g>
		<g class="st1">
			<text transform="matrix(0.9994 0 0 1 40.0547 193.8535)" class="st4 st5 st6">0</text>
		</g>
		<g class="st1">
			<text transform="matrix(0.9994 0 0 1 42.668 193.8535)" class="st4 st5 st6">1</text>
		</g>
		<g class="st1">
			<text transform="matrix(0.9994 0 0 1 45.2817 193.8535)" class="st4 st5 st6">4</text>
		</g>
		<g class="st1">
			<text transform="matrix(0.9994 0 0 1 47.8955 193.8535)" class="st4 st5 st6">3</text>
		</g>
		<g class="st1">
			<text transform="matrix(0.9994 0 0 1 50.5088 193.8535)" class="st4 st5 st6">4</text>
		</g>
		<g class="st1">
			<text transform="matrix(0.9994 0 0 1 51.667 219.2637)" class="st4 st5 st6">0</text>
		</g>
		<g class="st1">
			<text transform="matrix(0.9994 0 0 1 54.2803 219.2637)" class="st4 st5 st6">.</text>
		</g>
		<g class="st1">
			<text transform="matrix(0.9994 0 0 1 55.4971 219.2637)" class="st4 st5 st6">0</text>
		</g>
		<g class="st1">
			<text transform="matrix(0.9994 0 0 1 58.1104 219.2637)" class="st4 st5 st6">2</text>
		</g>
		<g class="st1">
			<text transform="matrix(0.9994 0 0 1 60.7241 219.2637)" class="st4 st5 st6">7</text>
		</g>
		<g class="st1">
			<text transform="matrix(0.9994 0 0 1 63.3379 219.2637)" class="st4 st5 st6">8</text>
		</g>
		<g class="st1">
			<text transform="matrix(0.9994 0 0 1 65.9512 219.2637)" class="st4 st5 st6">2</text>
		</g>
		<g class="st1">
			<text transform="matrix(0.9994 0 0 1 63.0967 244.6738)" class="st4 st5 st6">0</text>
		</g>
		<g class="st1">
			<text transform="matrix(0.9994 0 0 1 65.71 244.6738)" class="st4 st5 st6">.</text>
		</g>
		<g class="st1">
			<text transform="matrix(0.9994 0 0 1 66.9268 244.6738)" class="st4 st5 st6">0</text>
		</g>
		<g class="st1">
			<text transform="matrix(0.9994 0 0 1 69.54 244.6738)" class="st4 st5 st6">2</text>
		</g>
		<g class="st1">
			<text transform="matrix(0.9994 0 0 1 72.1538 244.6738)" class="st4 st5 st6">0</text>
		</g>
		<g class="st1">
			<text transform="matrix(0.9994 0 0 1 74.7676 244.6738)" class="st4 st5 st6">5</text>
		</g>
		<g class="st1">
			<text transform="matrix(0.9994 0 0 1 77.3809 244.6738)" class="st4 st5 st6">9</text>
		</g>
		<g class="st1">
			<text transform="matrix(0.9994 0 0 1 156.3081 263.7314)" class="st4 st5 st6">0</text>
		</g>
		<g class="st1">
			<text transform="matrix(0.9994 0 0 1 158.9219 263.7314)" class="st4 st5 st6">.</text>
		</g>
		<g class="st1">
			<text transform="matrix(0.9994 0 0 1 160.1377 263.7314)" class="st4 st5 st6">1</text>
		</g>
		<g class="st1">
			<text transform="matrix(0.9994 0 0 1 162.752 263.7314)" class="st4 st5 st6">6</text>
		</g>
		<g class="st1">
			<text transform="matrix(0.9994 0 0 1 165.3652 263.7314)" class="st4 st5 st6">7</text>
		</g>
		<g class="st1">
			<text transform="matrix(0.9994 0 0 1 167.9785 263.7314)" class="st4 st5 st6">9</text>
		</g>
		<g class="st1">
			<text transform="matrix(0.9994 0 0 1 170.5923 263.7314)" class="st4 st5 st6">2</text>
		</g>
		<rect x="291.6" y="255.4" class="st16" width="46.5" height="10.9"/>
		<path class="st17" d="M294.2,260.8c0,0.7-0.3,1.3-0.8,1.8c-0.5,0.5-1.1,0.8-1.8,0.8s-1.3-0.3-1.8-0.8c-0.5-0.5-0.8-1.1-0.8-1.8
			c0-0.7,0.3-1.3,0.8-1.8c0.5-0.5,1.1-0.8,1.8-0.8s1.3,0.3,1.8,0.8C293.9,259.5,294.2,260.1,294.2,260.8z"/>
		<path class="st12" d="M294.2,260.8c0,0.7-0.3,1.3-0.8,1.8c-0.5,0.5-1.1,0.8-1.8,0.8s-1.3-0.3-1.8-0.8c-0.5-0.5-0.8-1.1-0.8-1.8
			s0.3-1.3,0.8-1.8c0.5-0.5,1.1-0.8,1.8-0.8s1.3,0.3,1.8,0.8C293.9,259.5,294.2,260.1,294.2,260.8z"/>
		<g class="st1">
			<text transform="matrix(0.9994 0 0 1 296.1924 262.5244)" class="st5 st13">1</text>
		</g>
		<g class="st1">
			<text transform="matrix(0.9994 0 0 1 299.46 262.5244)" class="st5 st13">2</text>
		</g>
		<g class="st1">
			<text transform="matrix(0.9994 0 0 1 302.7266 262.5244)" class="st5 st13">9</text>
		</g>
		<g class="st1">
			<text transform="matrix(0.9994 0 0 1 305.9941 262.5244)" class="st5 st13">7</text>
		</g>
		<g class="st1">
			<text transform="matrix(0.9994 0 0 1 309.2607 262.5244)" class="st5 st13"> </text>
		</g>
		<g class="st1">
			<text transform="matrix(0.9994 0 0 1 310.7441 262.5244)" class="st5 st13">(</text>
		</g>
		<g class="st1">
			<text transform="matrix(0.9994 0 0 1 312.4355 262.5244)" class="st5 st13">0</text>
		</g>
		<g class="st1">
			<text transform="matrix(0.9994 0 0 1 315.7021 262.5244)" class="st5 st13">.</text>
		</g>
		<g class="st1">
			<text transform="matrix(0.9994 0 0 1 317.2227 262.5244)" class="st5 st13">2</text>
		</g>
		<g class="st1">
			<text transform="matrix(0.9994 0 0 1 320.4902 262.5244)" class="st5 st13">0</text>
		</g>
		<g class="st1">
			<text transform="matrix(0.9994 0 0 1 323.7568 262.5244)" class="st5 st13">7</text>
		</g>
		<g class="st1">
			<text transform="matrix(0.9994 0 0 1 327.0234 262.5244)" class="st5 st13">1</text>
		</g>
		<g class="st1">
			<text transform="matrix(0.9994 0 0 1 330.291 262.5244)" class="st5 st13">5</text>
		</g>
		<g class="st1">
			<text transform="matrix(0.9994 0 0 1 333.5576 262.5244)" class="st5 st13">)</text>
		</g>
		<rect x="195.1" y="268.1" class="st18" width="49.7" height="10.9"/>
		<path class="st11" d="M197.7,273.5c0,0.7-0.3,1.3-0.8,1.8c-0.5,0.5-1.1,0.8-1.8,0.8s-1.3-0.3-1.8-0.8c-0.5-0.5-0.8-1.1-0.8-1.8
			c0-0.7,0.3-1.3,0.8-1.8c0.5-0.5,1.1-0.8,1.8-0.8s1.3,0.3,1.8,0.8C197.4,272.2,197.7,272.8,197.7,273.5z"/>
		<path class="st12" d="M197.7,273.5c0,0.7-0.3,1.3-0.8,1.8c-0.5,0.5-1.1,0.8-1.8,0.8s-1.3-0.3-1.8-0.8c-0.5-0.5-0.8-1.1-0.8-1.8
			s0.3-1.3,0.8-1.8c0.5-0.5,1.1-0.8,1.8-0.8s1.3,0.3,1.8,0.8C197.4,272.2,197.7,272.8,197.7,273.5z"/>
		<g class="st1">
			<text transform="matrix(0.9994 0 0 1 199.7002 275.2295)" class="st5 st13">1</text>
		</g>
		<g class="st1">
			<text transform="matrix(0.9994 0 0 1 202.9678 275.2295)" class="st5 st13">9</text>
		</g>
		<g class="st1">
			<text transform="matrix(0.9994 0 0 1 206.2344 275.2295)" class="st5 st13">8</text>
		</g>
		<g class="st1">
			<text transform="matrix(0.9994 0 0 1 209.5015 275.2295)" class="st5 st13">4</text>
		</g>
		<g class="st1">
			<text transform="matrix(0.9994 0 0 1 212.7686 275.2295)" class="st5 st13">4</text>
		</g>
		<g class="st1">
			<text transform="matrix(0.9994 0 0 1 216.0352 275.2295)" class="st5 st13"> </text>
		</g>
		<g class="st1">
			<text transform="matrix(0.9994 0 0 1 217.5195 275.2295)" class="st5 st13">(</text>
		</g>
		<g class="st1">
			<text transform="matrix(0.9994 0 0 1 219.21 275.2295)" class="st5 st13">0</text>
		</g>
		<g class="st1">
			<text transform="matrix(0.9994 0 0 1 222.4771 275.2295)" class="st5 st13">.</text>
		</g>
		<g class="st1">
			<text transform="matrix(0.9994 0 0 1 223.9976 275.2295)" class="st5 st13">0</text>
		</g>
		<g class="st1">
			<text transform="matrix(0.9994 0 0 1 227.2646 275.2295)" class="st5 st13">3</text>
		</g>
		<g class="st1">
			<text transform="matrix(0.9994 0 0 1 230.5312 275.2295)" class="st5 st13">3</text>
		</g>
		<g class="st1">
			<text transform="matrix(0.9994 0 0 1 233.7983 275.2295)" class="st5 st13">3</text>
		</g>
		<g class="st1">
			<text transform="matrix(0.9994 0 0 1 237.0654 275.2295)" class="st5 st13">2</text>
		</g>
		<g class="st1">
			<text transform="matrix(0.9994 0 0 1 240.332 275.2295)" class="st5 st13">)</text>
		</g>
		<g class="st1">
			<text transform="matrix(0.9994 0 0 1 180.46 225.6162)" class="st4 st5 st6">0</text>
		</g>
		<g class="st1">
			<text transform="matrix(0.9994 0 0 1 183.0732 225.6162)" class="st4 st5 st6">.</text>
		</g>
		<g class="st1">
			<text transform="matrix(0.9994 0 0 1 184.29 225.6162)" class="st4 st5 st6">2</text>
		</g>
		<g class="st1">
			<text transform="matrix(0.9994 0 0 1 186.9033 225.6162)" class="st4 st5 st6">1</text>
		</g>
		<g class="st1">
			<text transform="matrix(0.9994 0 0 1 189.5171 225.6162)" class="st4 st5 st6">1</text>
		</g>
		<g class="st1">
			<text transform="matrix(0.9994 0 0 1 192.1309 225.6162)" class="st4 st5 st6">4</text>
		</g>
		<g class="st1">
			<text transform="matrix(0.9994 0 0 1 194.7441 225.6162)" class="st4 st5 st6">3</text>
		</g>
		<rect x="250.8" y="217.3" class="st19" width="49.7" height="10.9"/>
		<path class="st11" d="M253.4,222.7c0,0.7-0.3,1.3-0.8,1.8c-0.5,0.5-1.1,0.8-1.8,0.8s-1.3-0.3-1.8-0.8c-0.5-0.5-0.8-1.1-0.8-1.8
			c0-0.7,0.3-1.3,0.8-1.8c0.5-0.5,1.1-0.8,1.8-0.8s1.3,0.3,1.8,0.8C253.2,221.4,253.4,222,253.4,222.7z"/>
		<path class="st12" d="M253.4,222.7c0,0.7-0.3,1.3-0.8,1.8c-0.5,0.5-1.1,0.8-1.8,0.8s-1.3-0.3-1.8-0.8c-0.5-0.5-0.8-1.1-0.8-1.8
			s0.3-1.3,0.8-1.8c0.5-0.5,1.1-0.8,1.8-0.8s1.3,0.3,1.8,0.8C253.2,221.4,253.4,222,253.4,222.7z"/>
		<g class="st1">
			<text transform="matrix(0.9994 0 0 1 255.4043 224.4092)" class="st5 st13">1</text>
		</g>
		<g class="st1">
			<text transform="matrix(0.9994 0 0 1 258.6709 224.4092)" class="st5 st13">1</text>
		</g>
		<g class="st1">
			<text transform="matrix(0.9994 0 0 1 261.938 224.4092)" class="st5 st13">2</text>
		</g>
		<g class="st1">
			<text transform="matrix(0.9994 0 0 1 265.2051 224.4092)" class="st5 st13">3</text>
		</g>
		<g class="st1">
			<text transform="matrix(0.9994 0 0 1 268.4717 224.4092)" class="st5 st13">0</text>
		</g>
		<g class="st1">
			<text transform="matrix(0.9994 0 0 1 271.7383 224.4092)" class="st5 st13"> </text>
		</g>
		<g class="st1">
			<text transform="matrix(0.9994 0 0 1 273.2227 224.4092)" class="st5 st13">(</text>
		</g>
		<g class="st1">
			<text transform="matrix(0.9994 0 0 1 274.9141 224.4092)" class="st5 st13">0</text>
		</g>
		<g class="st1">
			<text transform="matrix(0.9994 0 0 1 278.1807 224.4092)" class="st5 st13">.</text>
		</g>
		<g class="st1">
			<text transform="matrix(0.9994 0 0 1 279.7012 224.4092)" class="st5 st13">0</text>
		</g>
		<g class="st1">
			<text transform="matrix(0.9994 0 0 1 282.9678 224.4092)" class="st5 st13">9</text>
		</g>
		<g class="st1">
			<text transform="matrix(0.9994 0 0 1 286.2354 224.4092)" class="st5 st13">0</text>
		</g>
		<g class="st1">
			<text transform="matrix(0.9994 0 0 1 289.502 224.4092)" class="st5 st13">1</text>
		</g>
		<g class="st1">
			<text transform="matrix(0.9994 0 0 1 292.7686 224.4092)" class="st5 st13">6</text>
		</g>
		<g class="st1">
			<text transform="matrix(0.9994 0 0 1 296.0361 224.4092)" class="st5 st13">)</text>
		</g>
		<rect x="235.7" y="230" class="st20" width="49.7" height="10.9"/>
		<path class="st17" d="M238.3,235.4c0,0.7-0.3,1.3-0.8,1.8c-0.5,0.5-1.1,0.8-1.8,0.8c-0.7,0-1.3-0.3-1.8-0.8
			c-0.5-0.5-0.8-1.1-0.8-1.8c0-0.7,0.3-1.3,0.8-1.8c0.5-0.5,1.1-0.8,1.8-0.8c0.7,0,1.3,0.3,1.8,0.8
			C238,234.1,238.3,234.7,238.3,235.4z"/>
		<path class="st12" d="M238.3,235.4c0,0.7-0.3,1.3-0.8,1.8c-0.5,0.5-1.1,0.8-1.8,0.8s-1.3-0.3-1.8-0.8c-0.5-0.5-0.8-1.1-0.8-1.8
			s0.3-1.3,0.8-1.8c0.5-0.5,1.1-0.8,1.8-0.8s1.3,0.3,1.8,0.8C238,234.1,238.3,234.7,238.3,235.4z"/>
		<g class="st1">
			<text transform="matrix(0.9994 0 0 1 240.25 237.1143)" class="st5 st13">1</text>
		</g>
		<g class="st1">
			<text transform="matrix(0.9994 0 0 1 243.5176 237.1143)" class="st5 st13">7</text>
		</g>
		<g class="st1">
			<text transform="matrix(0.9994 0 0 1 246.7842 237.1143)" class="st5 st13">8</text>
		</g>
		<g class="st1">
			<text transform="matrix(0.9994 0 0 1 250.0513 237.1143)" class="st5 st13">0</text>
		</g>
		<g class="st1">
			<text transform="matrix(0.9994 0 0 1 253.3184 237.1143)" class="st5 st13">4</text>
		</g>
		<g class="st1">
			<text transform="matrix(0.9994 0 0 1 256.585 237.1143)" class="st5 st13"> </text>
		</g>
		<g class="st1">
			<text transform="matrix(0.9994 0 0 1 258.0693 237.1143)" class="st5 st13">(</text>
		</g>
		<g class="st1">
			<text transform="matrix(0.9994 0 0 1 259.7598 237.1143)" class="st5 st13">0</text>
		</g>
		<g class="st1">
			<text transform="matrix(0.9994 0 0 1 263.0269 237.1143)" class="st5 st13">.</text>
		</g>
		<g class="st1">
			<text transform="matrix(0.9994 0 0 1 264.5474 237.1143)" class="st5 st13">0</text>
		</g>
		<g class="st1">
			<text transform="matrix(0.9994 0 0 1 267.8145 237.1143)" class="st5 st13">6</text>
		</g>
		<g class="st1">
			<text transform="matrix(0.9994 0 0 1 271.0811 237.1143)" class="st5 st13">2</text>
		</g>
		<g class="st1">
			<text transform="matrix(0.9994 0 0 1 274.3477 237.1143)" class="st5 st13">8</text>
		</g>
		<g class="st1">
			<text transform="matrix(0.9994 0 0 1 277.6152 237.1143)" class="st5 st13">6</text>
		</g>
		<g class="st1">
			<text transform="matrix(0.9994 0 0 1 280.8818 237.1143)" class="st5 st13">)</text>
		</g>
		<rect x="188.7" y="191.9" class="st16" width="46.5" height="10.9"/>
		<path class="st17" d="M191.3,197.3c0,0.7-0.3,1.3-0.8,1.8c-0.5,0.5-1.1,0.8-1.8,0.8c-0.7,0-1.3-0.3-1.8-0.8
			c-0.5-0.5-0.8-1.1-0.8-1.8c0-0.7,0.3-1.3,0.8-1.8c0.5-0.5,1.1-0.8,1.8-0.8c0.7,0,1.3,0.3,1.8,0.8C191,196,191.3,196.6,191.3,197.3
			z"/>
		<path class="st12" d="M191.3,197.3c0,0.7-0.3,1.3-0.8,1.8c-0.5,0.5-1.1,0.8-1.8,0.8s-1.3-0.3-1.8-0.8c-0.5-0.5-0.8-1.1-0.8-1.8
			s0.3-1.3,0.8-1.8c0.5-0.5,1.1-0.8,1.8-0.8s1.3,0.3,1.8,0.8C191,196,191.3,196.6,191.3,197.3z"/>
		<g class="st1">
			<text transform="matrix(0.9994 0 0 1 193.2617 198.999)" class="st5 st13">2</text>
		</g>
		<g class="st1">
			<text transform="matrix(0.9994 0 0 1 196.5283 198.999)" class="st5 st13">8</text>
		</g>
		<g class="st1">
			<text transform="matrix(0.9994 0 0 1 199.7954 198.999)" class="st5 st13">0</text>
		</g>
		<g class="st1">
			<text transform="matrix(0.9994 0 0 1 203.0625 198.999)" class="st5 st13">6</text>
		</g>
		<g class="st1">
			<text transform="matrix(0.9994 0 0 1 206.3291 198.999)" class="st5 st13"> </text>
		</g>
		<g class="st1">
			<text transform="matrix(0.9994 0 0 1 207.8135 198.999)" class="st5 st13">(</text>
		</g>
		<g class="st1">
			<text transform="matrix(0.9994 0 0 1 209.5039 198.999)" class="st5 st13">0</text>
		</g>
		<g class="st1">
			<text transform="matrix(0.9994 0 0 1 212.7715 198.999)" class="st5 st13">.</text>
		</g>
		<g class="st1">
			<text transform="matrix(0.9994 0 0 1 214.292 198.999)" class="st5 st13">2</text>
		</g>
		<g class="st1">
			<text transform="matrix(0.9994 0 0 1 217.5586 198.999)" class="st5 st13">1</text>
		</g>
		<g class="st1">
			<text transform="matrix(0.9994 0 0 1 220.8252 198.999)" class="st5 st13">0</text>
		</g>
		<g class="st1">
			<text transform="matrix(0.9994 0 0 1 224.0928 198.999)" class="st5 st13">2</text>
		</g>
		<g class="st1">
			<text transform="matrix(0.9994 0 0 1 227.3594 198.999)" class="st5 st13">3</text>
		</g>
		<g class="st1">
			<text transform="matrix(0.9994 0 0 1 230.626 198.999)" class="st5 st13">)</text>
		</g>
		<rect x="482.2" y="166.4" class="st17" width="49.7" height="10.9"/>
		<path class="st17" d="M484.8,171.9c0,0.7-0.3,1.3-0.8,1.8c-0.5,0.5-1.1,0.8-1.8,0.8s-1.3-0.3-1.8-0.8c-0.5-0.5-0.8-1.1-0.8-1.8
			c0-0.7,0.3-1.3,0.8-1.8c0.5-0.5,1.1-0.8,1.8-0.8s1.3,0.3,1.8,0.8C484.6,170.6,484.8,171.2,484.8,171.9z"/>
		<path class="st12" d="M484.8,171.9c0,0.7-0.3,1.3-0.8,1.8c-0.5,0.5-1.1,0.8-1.8,0.8s-1.3-0.3-1.8-0.8c-0.5-0.5-0.8-1.1-0.8-1.8
			s0.3-1.3,0.8-1.8c0.5-0.5,1.1-0.8,1.8-0.8s1.3,0.3,1.8,0.8C484.6,170.6,484.8,171.2,484.8,171.9z"/>
		<g class="st1">
			<text transform="matrix(0.9994 0 0 1 486.8008 173.5889)" class="st5 st13">2</text>
		</g>
		<g class="st1">
			<text transform="matrix(0.9994 0 0 1 490.0684 173.5889)" class="st5 st13">5</text>
		</g>
		<g class="st1">
			<text transform="matrix(0.9994 0 0 1 493.335 173.5889)" class="st5 st13">9</text>
		</g>
		<g class="st1">
			<text transform="matrix(0.9994 0 0 1 496.6016 173.5889)" class="st5 st13">8</text>
		</g>
		<g class="st1">
			<text transform="matrix(0.9994 0 0 1 499.8691 173.5889)" class="st5 st13">5</text>
		</g>
		<g class="st1">
			<text transform="matrix(0.9994 0 0 1 503.1357 173.5889)" class="st5 st13"> </text>
		</g>
		<g class="st1">
			<text transform="matrix(0.9994 0 0 1 504.6201 173.5889)" class="st5 st13">(</text>
		</g>
		<g class="st1">
			<text transform="matrix(0.9994 0 0 1 506.3105 173.5889)" class="st5 st13">0</text>
		</g>
		<g class="st1">
			<text transform="matrix(0.9994 0 0 1 509.5781 173.5889)" class="st5 st13">.</text>
		</g>
		<g class="st1">
			<text transform="matrix(0.9994 0 0 1 511.0977 173.5889)" class="st5 st13">7</text>
		</g>
		<g class="st1">
			<text transform="matrix(0.9994 0 0 1 514.3652 173.5889)" class="st5 st13">6</text>
		</g>
		<g class="st1">
			<text transform="matrix(0.9994 0 0 1 517.6318 173.5889)" class="st5 st13">6</text>
		</g>
		<g class="st1">
			<text transform="matrix(0.9994 0 0 1 520.8984 173.5889)" class="st5 st13">8</text>
		</g>
		<g class="st1">
			<text transform="matrix(0.9994 0 0 1 524.166 173.5889)" class="st5 st13">6</text>
		</g>
		<g class="st1">
			<text transform="matrix(0.9994 0 0 1 527.4326 173.5889)" class="st5 st13">)</text>
		</g>
		<g class="st1">
			<text transform="matrix(0.9994 0 0 1 89.3848 92.2129)" class="st4 st5 st6">0</text>
		</g>
		<g class="st1">
			<text transform="matrix(0.9994 0 0 1 91.9985 92.2129)" class="st4 st5 st6">.</text>
		</g>
		<g class="st1">
			<text transform="matrix(0.9994 0 0 1 93.2148 92.2129)" class="st4 st5 st6">1</text>
		</g>
		<g class="st1">
			<text transform="matrix(0.9994 0 0 1 95.8286 92.2129)" class="st4 st5 st6">0</text>
		</g>
		<g class="st1">
			<text transform="matrix(0.9994 0 0 1 98.4424 92.2129)" class="st4 st5 st6">5</text>
		</g>
		<g class="st1">
			<text transform="matrix(0.9994 0 0 1 101.0557 92.2129)" class="st4 st5 st6">4</text>
		</g>
		<rect x="310.7" y="64.8" class="st21" width="49.7" height="10.9"/>
		<path class="st17" d="M313.3,70.2c0,0.7-0.3,1.3-0.8,1.8c-0.5,0.5-1.1,0.8-1.8,0.8s-1.3-0.3-1.8-0.8c-0.5-0.5-0.8-1.1-0.8-1.8
			c0-0.7,0.3-1.3,0.8-1.8c0.5-0.5,1.1-0.8,1.8-0.8s1.3,0.3,1.8,0.8C313.1,68.9,313.3,69.5,313.3,70.2z"/>
		<path class="st12" d="M313.3,70.2c0,0.7-0.3,1.3-0.8,1.8s-1.1,0.8-1.8,0.8s-1.3-0.3-1.8-0.8s-0.8-1.1-0.8-1.8s0.3-1.3,0.8-1.8
			s1.1-0.8,1.8-0.8s1.3,0.3,1.8,0.8S313.3,69.5,313.3,70.2z"/>
		<g class="st1">
			<text transform="matrix(0.9994 0 0 1 315.3096 71.9492)" class="st5 st13">5</text>
		</g>
		<g class="st1">
			<text transform="matrix(0.9994 0 0 1 318.5771 71.9492)" class="st5 st13">0</text>
		</g>
		<g class="st1">
			<text transform="matrix(0.9994 0 0 1 321.8438 71.9492)" class="st5 st13">6</text>
		</g>
		<g class="st1">
			<text transform="matrix(0.9994 0 0 1 325.1113 71.9492)" class="st5 st13">4</text>
		</g>
		<g class="st1">
			<text transform="matrix(0.9994 0 0 1 328.3779 71.9492)" class="st5 st13">3</text>
		</g>
		<g class="st1">
			<text transform="matrix(0.9994 0 0 1 331.6445 71.9492)" class="st5 st13"> </text>
		</g>
		<g class="st1">
			<text transform="matrix(0.9994 0 0 1 333.1289 71.9492)" class="st5 st13">(</text>
		</g>
		<g class="st1">
			<text transform="matrix(0.9994 0 0 1 334.8193 71.9492)" class="st5 st13">0</text>
		</g>
		<g class="st1">
			<text transform="matrix(0.9994 0 0 1 338.0859 71.9492)" class="st5 st13">.</text>
		</g>
		<g class="st1">
			<text transform="matrix(0.9994 0 0 1 339.6074 71.9492)" class="st5 st13">3</text>
		</g>
		<g class="st1">
			<text transform="matrix(0.9994 0 0 1 342.874 71.9492)" class="st5 st13">6</text>
		</g>
		<g class="st1">
			<text transform="matrix(0.9994 0 0 1 346.1406 71.9492)" class="st5 st13">6</text>
		</g>
		<g class="st1">
			<text transform="matrix(0.9994 0 0 1 349.4082 71.9492)" class="st5 st13">8</text>
		</g>
		<g class="st1">
			<text transform="matrix(0.9994 0 0 1 352.6748 71.9492)" class="st5 st13">6</text>
		</g>
		<g class="st1">
			<text transform="matrix(0.9994 0 0 1 355.9414 71.9492)" class="st5 st13">)</text>
		</g>
		<g class="st1">
			<text transform="matrix(0.9994 0 0 1 107.3931 117.623)" class="st4 st5 st6">0</text>
		</g>
		<g class="st1">
			<text transform="matrix(0.9994 0 0 1 110.0068 117.623)" class="st4 st5 st6">.</text>
		</g>
		<g class="st1">
			<text transform="matrix(0.9994 0 0 1 111.2227 117.623)" class="st4 st5 st6">0</text>
		</g>
		<g class="st1">
			<text transform="matrix(0.9994 0 0 1 113.8369 117.623)" class="st4 st5 st6">3</text>
		</g>
		<g class="st1">
			<text transform="matrix(0.9994 0 0 1 116.4502 117.623)" class="st4 st5 st6">7</text>
		</g>
		<g class="st1">
			<text transform="matrix(0.9994 0 0 1 119.0635 117.623)" class="st4 st5 st6">1</text>
		</g>
		<g class="st1">
			<text transform="matrix(0.9994 0 0 1 121.6772 117.623)" class="st4 st5 st6">5</text>
		</g>
		<g class="st1">
			<text transform="matrix(0.9994 0 0 1 115.5806 136.6807)" class="st4 st5 st6">0</text>
		</g>
		<g class="st1">
			<text transform="matrix(0.9994 0 0 1 118.1943 136.6807)" class="st4 st5 st6">.</text>
		</g>
		<g class="st1">
			<text transform="matrix(0.9994 0 0 1 119.4102 136.6807)" class="st4 st5 st6">0</text>
		</g>
		<g class="st1">
			<text transform="matrix(0.9994 0 0 1 122.0244 136.6807)" class="st4 st5 st6">1</text>
		</g>
		<g class="st1">
			<text transform="matrix(0.9994 0 0 1 124.6377 136.6807)" class="st4 st5 st6">4</text>
		</g>
		<g class="st1">
			<text transform="matrix(0.9994 0 0 1 127.251 136.6807)" class="st4 st5 st6">7</text>
		</g>
		<g class="st1">
			<text transform="matrix(0.9994 0 0 1 129.8647 136.6807)" class="st4 st5 st6">5</text>
		</g>
		<rect x="239.8" y="128.3" class="st22" width="49.7" height="10.9"/>
		<path class="st11" d="M242.3,133.8c0,0.7-0.3,1.3-0.8,1.8c-0.5,0.5-1.1,0.8-1.8,0.8c-0.7,0-1.3-0.3-1.8-0.8
			c-0.5-0.5-0.8-1.1-0.8-1.8c0-0.7,0.3-1.3,0.8-1.8c0.5-0.5,1.1-0.8,1.8-0.8c0.7,0,1.3,0.3,1.8,0.8
			C242.1,132.4,242.3,133,242.3,133.8z"/>
		<path class="st12" d="M242.3,133.8c0,0.7-0.3,1.3-0.8,1.8s-1.1,0.8-1.8,0.8s-1.3-0.3-1.8-0.8s-0.8-1.1-0.8-1.8s0.3-1.3,0.8-1.8
			s1.1-0.8,1.8-0.8s1.3,0.3,1.8,0.8S242.3,133,242.3,133.8z"/>
		<g class="st1">
			<text transform="matrix(0.9994 0 0 1 244.3408 135.4736)" class="st5 st13">3</text>
		</g>
		<g class="st1">
			<text transform="matrix(0.9994 0 0 1 247.6084 135.4736)" class="st5 st13">0</text>
		</g>
		<g class="st1">
			<text transform="matrix(0.9994 0 0 1 250.875 135.4736)" class="st5 st13">6</text>
		</g>
		<g class="st1">
			<text transform="matrix(0.9994 0 0 1 254.1421 135.4736)" class="st5 st13">5</text>
		</g>
		<g class="st1">
			<text transform="matrix(0.9994 0 0 1 257.4092 135.4736)" class="st5 st13">6</text>
		</g>
		<g class="st1">
			<text transform="matrix(0.9994 0 0 1 260.6758 135.4736)" class="st5 st13"> </text>
		</g>
		<g class="st1">
			<text transform="matrix(0.9994 0 0 1 262.1602 135.4736)" class="st5 st13">(</text>
		</g>
		<g class="st1">
			<text transform="matrix(0.9994 0 0 1 263.8506 135.4736)" class="st5 st13">0</text>
		</g>
		<g class="st1">
			<text transform="matrix(0.9994 0 0 1 267.1172 135.4736)" class="st5 st13">.</text>
		</g>
		<g class="st1">
			<text transform="matrix(0.9994 0 0 1 268.6387 135.4736)" class="st5 st13">1</text>
		</g>
		<g class="st1">
			<text transform="matrix(0.9994 0 0 1 271.9053 135.4736)" class="st5 st13">8</text>
		</g>
		<g class="st1">
			<text transform="matrix(0.9994 0 0 1 275.1719 135.4736)" class="st5 st13">7</text>
		</g>
		<g class="st1">
			<text transform="matrix(0.9994 0 0 1 278.4395 135.4736)" class="st5 st13">1</text>
		</g>
		<g class="st1">
			<text transform="matrix(0.9994 0 0 1 281.7061 135.4736)" class="st5 st13">1</text>
		</g>
		<g class="st1">
			<text transform="matrix(0.9994 0 0 1 284.9727 135.4736)" class="st5 st13">)</text>
		</g>
		<rect x="164.2" y="141" class="st10" width="46.5" height="10.9"/>
		<path class="st17" d="M166.8,146.5c0,0.7-0.3,1.3-0.8,1.8c-0.5,0.5-1.1,0.8-1.8,0.8c-0.7,0-1.3-0.3-1.8-0.8
			c-0.5-0.5-0.8-1.1-0.8-1.8c0-0.7,0.3-1.3,0.8-1.8c0.5-0.5,1.1-0.8,1.8-0.8c0.7,0,1.3,0.3,1.8,0.8
			C166.5,145.1,166.8,145.8,166.8,146.5z"/>
		<path class="st12" d="M166.8,146.5c0,0.7-0.3,1.3-0.8,1.8c-0.5,0.5-1.1,0.8-1.8,0.8s-1.3-0.3-1.8-0.8c-0.5-0.5-0.8-1.1-0.8-1.8
			s0.3-1.3,0.8-1.8c0.5-0.5,1.1-0.8,1.8-0.8s1.3,0.3,1.8,0.8C166.5,145.1,166.8,145.8,166.8,146.5z"/>
		<g class="st1">
			<text transform="matrix(0.9994 0 0 1 168.7812 148.1787)" class="st5 st13">6</text>
		</g>
		<g class="st1">
			<text transform="matrix(0.9994 0 0 1 172.0488 148.1787)" class="st5 st13">3</text>
		</g>
		<g class="st1">
			<text transform="matrix(0.9994 0 0 1 175.3154 148.1787)" class="st5 st13">0</text>
		</g>
		<g class="st1">
			<text transform="matrix(0.9994 0 0 1 178.5825 148.1787)" class="st5 st13">4</text>
		</g>
		<g class="st1">
			<text transform="matrix(0.9994 0 0 1 181.8496 148.1787)" class="st5 st13"> </text>
		</g>
		<g class="st1">
			<text transform="matrix(0.9994 0 0 1 183.3335 148.1787)" class="st5 st13">(</text>
		</g>
		<g class="st1">
			<text transform="matrix(0.9994 0 0 1 185.0244 148.1787)" class="st5 st13">0</text>
		</g>
		<g class="st1">
			<text transform="matrix(0.9994 0 0 1 188.291 148.1787)" class="st5 st13">.</text>
		</g>
		<g class="st1">
			<text transform="matrix(0.9994 0 0 1 189.8115 148.1787)" class="st5 st13">0</text>
		</g>
		<g class="st1">
			<text transform="matrix(0.9994 0 0 1 193.0786 148.1787)" class="st5 st13">5</text>
		</g>
		<g class="st1">
			<text transform="matrix(0.9994 0 0 1 196.3457 148.1787)" class="st5 st13">0</text>
		</g>
		<g class="st1">
			<text transform="matrix(0.9994 0 0 1 199.6123 148.1787)" class="st5 st13">9</text>
		</g>
		<g class="st1">
			<text transform="matrix(0.9994 0 0 1 202.8794 148.1787)" class="st5 st13">9</text>
		</g>
		<g class="st1">
			<text transform="matrix(0.9994 0 0 1 206.1465 148.1787)" class="st5 st13">)</text>
		</g>
		<g class="st1">
			<text transform="matrix(0.9994 0 0 1 159.8662 98.5654)" class="st4 st5 st6">0</text>
		</g>
		<g class="st1">
			<text transform="matrix(0.9994 0 0 1 162.4795 98.5654)" class="st4 st5 st6">.</text>
		</g>
		<g class="st1">
			<text transform="matrix(0.9994 0 0 1 163.6963 98.5654)" class="st4 st5 st6">0</text>
		</g>
		<g class="st1">
			<text transform="matrix(0.9994 0 0 1 166.3096 98.5654)" class="st4 st5 st6">9</text>
		</g>
		<g class="st1">
			<text transform="matrix(0.9994 0 0 1 168.9233 98.5654)" class="st4 st5 st6">4</text>
		</g>
		<g class="st1">
			<text transform="matrix(0.9994 0 0 1 171.5371 98.5654)" class="st4 st5 st6">5</text>
		</g>
		<g class="st1">
			<text transform="matrix(0.9994 0 0 1 174.1504 98.5654)" class="st4 st5 st6">3</text>
		</g>
		<rect x="200.9" y="90.2" class="st23" width="46.5" height="10.9"/>
		<path class="st11" d="M203.5,95.6c0,0.7-0.3,1.3-0.8,1.8c-0.5,0.5-1.1,0.8-1.8,0.8c-0.7,0-1.3-0.3-1.8-0.8
			c-0.5-0.5-0.8-1.1-0.8-1.8s0.3-1.3,0.8-1.8c0.5-0.5,1.1-0.8,1.8-0.8c0.7,0,1.3,0.3,1.8,0.8C203.2,94.3,203.5,94.9,203.5,95.6z"/>
		<path class="st12" d="M203.5,95.6c0,0.7-0.3,1.3-0.8,1.8s-1.1,0.8-1.8,0.8s-1.3-0.3-1.8-0.8s-0.8-1.1-0.8-1.8s0.3-1.3,0.8-1.8
			s1.1-0.8,1.8-0.8s1.3,0.3,1.8,0.8S203.5,94.9,203.5,95.6z"/>
		<g class="st1">
			<text transform="matrix(0.9994 0 0 1 205.457 97.3594)" class="st5 st13">7</text>
		</g>
		<g class="st1">
			<text transform="matrix(0.9994 0 0 1 208.7236 97.3594)" class="st5 st13">4</text>
		</g>
		<g class="st1">
			<text transform="matrix(0.9994 0 0 1 211.9907 97.3594)" class="st5 st13">7</text>
		</g>
		<g class="st1">
			<text transform="matrix(0.9994 0 0 1 215.2578 97.3594)" class="st5 st13">6</text>
		</g>
		<g class="st1">
			<text transform="matrix(0.9994 0 0 1 218.5244 97.3594)" class="st5 st13"> </text>
		</g>
		<g class="st1">
			<text transform="matrix(0.9994 0 0 1 220.0088 97.3594)" class="st5 st13">(</text>
		</g>
		<g class="st1">
			<text transform="matrix(0.9994 0 0 1 221.6992 97.3594)" class="st5 st13">0</text>
		</g>
		<g class="st1">
			<text transform="matrix(0.9994 0 0 1 224.9668 97.3594)" class="st5 st13">.</text>
		</g>
		<g class="st1">
			<text transform="matrix(0.9994 0 0 1 226.4873 97.3594)" class="st5 st13">0</text>
		</g>
		<g class="st1">
			<text transform="matrix(0.9994 0 0 1 229.7539 97.3594)" class="st5 st13">3</text>
		</g>
		<g class="st1">
			<text transform="matrix(0.9994 0 0 1 233.0205 97.3594)" class="st5 st13">7</text>
		</g>
		<g class="st1">
			<text transform="matrix(0.9994 0 0 1 236.2881 97.3594)" class="st5 st13">2</text>
		</g>
		<g class="st1">
			<text transform="matrix(0.9994 0 0 1 239.5547 97.3594)" class="st5 st13">8</text>
		</g>
		<g class="st1">
			<text transform="matrix(0.9994 0 0 1 242.8213 97.3594)" class="st5 st13">)</text>
		</g>
		<rect x="184.8" y="102.9" class="st10" width="49.7" height="10.9"/>
		<path class="st17" d="M187.3,108.3c0,0.7-0.3,1.3-0.8,1.8c-0.5,0.5-1.1,0.8-1.8,0.8c-0.7,0-1.3-0.3-1.8-0.8
			c-0.5-0.5-0.8-1.1-0.8-1.8c0-0.7,0.3-1.3,0.8-1.8c0.5-0.5,1.1-0.8,1.8-0.8c0.7,0,1.3,0.3,1.8,0.8
			C187.1,107,187.3,107.6,187.3,108.3z"/>
		<path class="st12" d="M187.3,108.3c0,0.7-0.3,1.3-0.8,1.8c-0.5,0.5-1.1,0.8-1.8,0.8s-1.3-0.3-1.8-0.8c-0.5-0.5-0.8-1.1-0.8-1.8
			s0.3-1.3,0.8-1.8c0.5-0.5,1.1-0.8,1.8-0.8s1.3,0.3,1.8,0.8C187.1,107,187.3,107.6,187.3,108.3z"/>
		<g class="st1">
			<text transform="matrix(0.9994 0 0 1 189.3311 110.0635)" class="st5 st13">6</text>
		</g>
		<g class="st1">
			<text transform="matrix(0.9994 0 0 1 192.5986 110.0635)" class="st5 st13">1</text>
		</g>
		<g class="st1">
			<text transform="matrix(0.9994 0 0 1 195.8652 110.0635)" class="st5 st13">0</text>
		</g>
		<g class="st1">
			<text transform="matrix(0.9994 0 0 1 199.1323 110.0635)" class="st5 st13">9</text>
		</g>
		<g class="st1">
			<text transform="matrix(0.9994 0 0 1 202.3994 110.0635)" class="st5 st13">4</text>
		</g>
		<g class="st1">
			<text transform="matrix(0.9994 0 0 1 205.666 110.0635)" class="st5 st13"> </text>
		</g>
		<g class="st1">
			<text transform="matrix(0.9994 0 0 1 207.1504 110.0635)" class="st5 st13">(</text>
		</g>
		<g class="st1">
			<text transform="matrix(0.9994 0 0 1 208.8408 110.0635)" class="st5 st13">0</text>
		</g>
		<g class="st1">
			<text transform="matrix(0.9994 0 0 1 212.1079 110.0635)" class="st5 st13">.</text>
		</g>
		<g class="st1">
			<text transform="matrix(0.9994 0 0 1 213.6284 110.0635)" class="st5 st13">0</text>
		</g>
		<g class="st1">
			<text transform="matrix(0.9994 0 0 1 216.8955 110.0635)" class="st5 st13">0</text>
		</g>
		<g class="st1">
			<text transform="matrix(0.9994 0 0 1 220.1621 110.0635)" class="st5 st13">8</text>
		</g>
		<g class="st1">
			<text transform="matrix(0.9994 0 0 1 223.4292 110.0635)" class="st5 st13">2</text>
		</g>
		<g class="st1">
			<text transform="matrix(0.9994 0 0 1 226.6963 110.0635)" class="st5 st13">3</text>
		</g>
		<g class="st1">
			<text transform="matrix(0.9994 0 0 1 229.9629 110.0635)" class="st5 st13">)</text>
		</g>
		<g class="st1">
			<text transform="matrix(0.9994 0 0 1 25.9663 35.04)" class="st4 st5 st6">0</text>
		</g>
		<g class="st1">
			<text transform="matrix(0.9994 0 0 1 28.5801 35.04)" class="st4 st5 st6">.</text>
		</g>
		<g class="st1">
			<text transform="matrix(0.9994 0 0 1 29.7959 35.04)" class="st4 st5 st6">0</text>
		</g>
		<g class="st1">
			<text transform="matrix(0.9994 0 0 1 32.4102 35.04)" class="st4 st5 st6">3</text>
		</g>
		<g class="st1">
			<text transform="matrix(0.9994 0 0 1 35.0234 35.04)" class="st4 st5 st6">8</text>
		</g>
		<g class="st1">
			<text transform="matrix(0.9994 0 0 1 37.6367 35.04)" class="st4 st5 st6">1</text>
		</g>
		<g class="st1">
			<text transform="matrix(0.9994 0 0 1 40.2505 35.04)" class="st4 st5 st6">1</text>
		</g>
		<rect x="57.3" y="26.7" class="st16" width="49.7" height="10.9"/>
		<path class="st17" d="M59.9,32.1c0,0.7-0.3,1.3-0.8,1.8c-0.5,0.5-1.1,0.8-1.8,0.8s-1.3-0.3-1.8-0.8c-0.5-0.5-0.8-1.1-0.8-1.8
			c0-0.7,0.3-1.3,0.8-1.8c0.5-0.5,1.1-0.8,1.8-0.8s1.3,0.3,1.8,0.8C59.6,30.8,59.9,31.4,59.9,32.1z"/>
		<path class="st12" d="M59.9,32.1c0,0.7-0.3,1.3-0.8,1.8c-0.5,0.5-1.1,0.8-1.8,0.8s-1.3-0.3-1.8-0.8c-0.5-0.5-0.8-1.1-0.8-1.8
			s0.3-1.3,0.8-1.8c0.5-0.5,1.1-0.8,1.8-0.8s1.3,0.3,1.8,0.8C59.6,30.8,59.9,31.4,59.9,32.1z"/>
		<g class="st1">
			<text transform="matrix(0.9994 0 0 1 61.8926 33.834)" class="st5 st13">6</text>
		</g>
		<g class="st1">
			<text transform="matrix(0.9994 0 0 1 65.1602 33.834)" class="st5 st13">3</text>
		</g>
		<g class="st1">
			<text transform="matrix(0.9994 0 0 1 68.4268 33.834)" class="st5 st13">1</text>
		</g>
		<g class="st1">
			<text transform="matrix(0.9994 0 0 1 71.6938 33.834)" class="st5 st13">4</text>
		</g>
		<g class="st1">
			<text transform="matrix(0.9994 0 0 1 74.9609 33.834)" class="st5 st13">8</text>
		</g>
		<g class="st1">
			<text transform="matrix(0.9994 0 0 1 78.2275 33.834)" class="st5 st13"> </text>
		</g>
		<g class="st1">
			<text transform="matrix(0.9994 0 0 1 79.7119 33.834)" class="st5 st13">(</text>
		</g>
		<g class="st1">
			<text transform="matrix(0.9994 0 0 1 81.4023 33.834)" class="st5 st13">0</text>
		</g>
		<g class="st1">
			<text transform="matrix(0.9994 0 0 1 84.6694 33.834)" class="st5 st13">.</text>
		</g>
		<g class="st1">
			<text transform="matrix(0.9994 0 0 1 86.1899 33.834)" class="st5 st13">0</text>
		</g>
		<g class="st1">
			<text transform="matrix(0.9994 0 0 1 89.457 33.834)" class="st5 st13">1</text>
		</g>
		<g class="st1">
			<text transform="matrix(0.9994 0 0 1 92.7236 33.834)" class="st5 st13">9</text>
		</g>
		<g class="st1">
			<text transform="matrix(0.9994 0 0 1 95.9907 33.834)" class="st5 st13">8</text>
		</g>
		<g class="st1">
			<text transform="matrix(0.9994 0 0 1 99.2578 33.834)" class="st5 st13">7</text>
		</g>
		<g class="st1">
			<text transform="matrix(0.9994 0 0 1 102.5244 33.834)" class="st5 st13">)</text>
		</g>
		<rect x="128.2" y="39.4" class="st24" width="49.7" height="10.9"/>
		<path class="st11" d="M130.8,44.8c0,0.7-0.3,1.3-0.8,1.8c-0.5,0.5-1.1,0.8-1.8,0.8c-0.7,0-1.3-0.3-1.8-0.8
			c-0.5-0.5-0.8-1.1-0.8-1.8c0-0.7,0.3-1.3,0.8-1.8c0.5-0.5,1.1-0.8,1.8-0.8c0.7,0,1.3,0.3,1.8,0.8
			C130.6,43.5,130.8,44.1,130.8,44.8z"/>
		<path class="st12" d="M130.8,44.8c0,0.7-0.3,1.3-0.8,1.8c-0.5,0.5-1.1,0.8-1.8,0.8s-1.3-0.3-1.8-0.8c-0.5-0.5-0.8-1.1-0.8-1.8
			s0.3-1.3,0.8-1.8c0.5-0.5,1.1-0.8,1.8-0.8s1.3,0.3,1.8,0.8C130.6,43.5,130.8,44.1,130.8,44.8z"/>
		<g class="st1">
			<text transform="matrix(0.9994 0 0 1 132.8057 46.5391)" class="st5 st13">2</text>
		</g>
		<g class="st1">
			<text transform="matrix(0.9994 0 0 1 136.0732 46.5391)" class="st5 st13">2</text>
		</g>
		<g class="st1">
			<text transform="matrix(0.9994 0 0 1 139.3398 46.5391)" class="st5 st13">8</text>
		</g>
		<g class="st1">
			<text transform="matrix(0.9994 0 0 1 142.6069 46.5391)" class="st5 st13">2</text>
		</g>
		<g class="st1">
			<text transform="matrix(0.9994 0 0 1 145.874 46.5391)" class="st5 st13">0</text>
		</g>
		<g class="st1">
			<text transform="matrix(0.9994 0 0 1 149.1406 46.5391)" class="st5 st13"> </text>
		</g>
		<g class="st1">
			<text transform="matrix(0.9994 0 0 1 150.625 46.5391)" class="st5 st13">(</text>
		</g>
		<g class="st1">
			<text transform="matrix(0.9994 0 0 1 152.3154 46.5391)" class="st5 st13">0</text>
		</g>
		<g class="st1">
			<text transform="matrix(0.9994 0 0 1 155.5825 46.5391)" class="st5 st13">.</text>
		</g>
		<g class="st1">
			<text transform="matrix(0.9994 0 0 1 157.103 46.5391)" class="st5 st13">1</text>
		</g>
		<g class="st1">
			<text transform="matrix(0.9994 0 0 1 160.3701 46.5391)" class="st5 st13">4</text>
		</g>
		<g class="st1">
			<text transform="matrix(0.9994 0 0 1 163.6367 46.5391)" class="st5 st13">7</text>
		</g>
		<g class="st1">
			<text transform="matrix(0.9994 0 0 1 166.9038 46.5391)" class="st5 st13">6</text>
		</g>
		<g class="st1">
			<text transform="matrix(0.9994 0 0 1 170.1709 46.5391)" class="st5 st13">2</text>
		</g>
		<g class="st1">
			<text transform="matrix(0.9994 0 0 1 173.4375 46.5391)" class="st5 st13">)</text>
		</g>
	</g>
</g>
</svg>
